<svg xmlns="http://www.w3.org/2000/svg" viewBox="0 0 300 96.41"><defs><style>.cls-1{fill:#171716;}.cls-1,.cls-2{fill-rule:evenodd;}.cls-2,.cls-3{fill:#6a2161;}</style></defs><g id="Camada_2" data-name="Camada 2"><g id="Camada_1-2" data-name="Camada 1"><g id="V2"><path id="Path_4" data-name="Path 4" class="cls-1" d="M113.22,59.62h6l-.61-11.4ZM99.34,73l16.74-33h9.85L129,73h-9l-.39-6.73h-9.46L106.78,73ZM154.23,65a14.15,14.15,0,0,1-4.89,6.36,11.82,11.82,0,0,1-7.21,2.17,10.25,10.25,0,0,1-8-3.1,10.59,10.59,0,0,1-2.48-8.22,16.81,16.81,0,0,1,1.08-5.19,18.17,18.17,0,0,1,2.64-4.42A11.93,11.93,0,0,1,140,49.07a12.87,12.87,0,0,1,5.82-1.24,10.39,10.39,0,0,1,7.29,2.48,9.17,9.17,0,0,1,2.79,6.9l-8,1.09V58a4,4,0,0,0-.54-2.64,2,2,0,0,0-1.86-1c-1.16,0-2.17.78-3.1,2.41a15,15,0,0,0-1.55,6.2,4.76,4.76,0,0,0,.54,2.94,2.49,2.49,0,0,0,2.09,1A3.22,3.22,0,0,0,145.7,66a5.78,5.78,0,0,0,1.47-2.56Zm25.2,0a15.39,15.39,0,0,1-4.89,6.36,12.23,12.23,0,0,1-7.29,2.17,10,10,0,0,1-7.9-3.1,10.34,10.34,0,0,1-2.56-8.22A19.32,19.32,0,0,1,158,57.06a15.75,15.75,0,0,1,2.56-4.42,12.57,12.57,0,0,1,4.57-3.57,13.42,13.42,0,0,1,5.82-1.24,10.56,10.56,0,0,1,7.36,2.48,9.09,9.09,0,0,1,2.71,6.9l-8,1.09.08-.31a4.49,4.49,0,0,0-.55-2.64,2.15,2.15,0,0,0-1.94-1c-1.16,0-2.17.78-3,2.41A13.94,13.94,0,0,0,166,63a4.76,4.76,0,0,0,.54,2.94,2.31,2.31,0,0,0,2.1,1,3,3,0,0,0,2.17-.93,5.13,5.13,0,0,0,1.47-2.56Zm29.15-16.59L202.84,73h-8.22l1-4.11a8.83,8.83,0,0,1-3.26,3.49,8,8,0,0,1-4.5,1.24,6.55,6.55,0,0,1-4.8-1.63,5.71,5.71,0,0,1-1.4-4.73,9.4,9.4,0,0,1,.16-1.39,13,13,0,0,1,.38-1.86l3.58-15.51h8.84l-3.49,15a2.09,2.09,0,0,0-.15.7,1.42,1.42,0,0,1-.08.54,2.63,2.63,0,0,0,.46,1.7,1.68,1.68,0,0,0,1.4.62,2.93,2.93,0,0,0,2.17-.93,5.89,5.89,0,0,0,1.32-2.71l3.49-14.88ZM207.49,73l5.74-24.5h8.21l-1.55,7.13a17.6,17.6,0,0,1,3.73-5.89,6.36,6.36,0,0,1,4.49-1.86h.47a7.63,7.63,0,0,0,.77.08l-2,8.76h-.24c-.77-.08-1.31-.15-1.62-.15A5.66,5.66,0,0,0,221.37,58a11.73,11.73,0,0,0-2.4,5.74L216.79,73Zm34.65-4.27a10.83,10.83,0,0,1-3.49,3.57,9.73,9.73,0,0,1-4.8,1.24,6.69,6.69,0,0,1-5.12-2,6.42,6.42,0,0,1-1.63-5.11,7.85,7.85,0,0,1,4.73-6.82,29,29,0,0,1,12.95-2.48,1.71,1.71,0,0,0,.15-.63,1.63,1.63,0,0,0,.08-.62,1.81,1.81,0,0,0-.62-1.7,2.85,2.85,0,0,0-2-.54,4.45,4.45,0,0,0-2.48.69,4.9,4.9,0,0,0-1.7,2l-7.6-1.55a11.07,11.07,0,0,1,5-5.12,17.78,17.78,0,0,1,8.22-1.7,12.76,12.76,0,0,1,7.75,1.94,6.1,6.1,0,0,1,2.33,5.58,4.82,4.82,0,0,1-.08,1,13.2,13.2,0,0,0-.24,1.4l-2.24,9.38c-.16.78-.31,1.47-.39,2s-.15,1-.23,1.39v1.16a5.12,5.12,0,0,0,.08,1.17h-9.07c0-.32-.08-.55-.08-.78a3.8,3.8,0,0,0,.08-1c.07-.38.07-.85.15-1.24s.15-.85.23-1.24Zm1.63-7.36a10.29,10.29,0,0,0-5.12,1.24,3.35,3.35,0,0,0-1.93,2.79,2.08,2.08,0,0,0,.46,1.71,2,2,0,0,0,1.63.69A3.9,3.9,0,0,0,242,66a9.46,9.46,0,0,0,1.78-4.65ZM272,41l-1.94,8.21h4.35L273.16,55h-4.5l-2.09,8.84v.23a5.47,5.47,0,0,1-.16.7,2.53,2.53,0,0,0,.47,1.62,2.61,2.61,0,0,0,1.7.55c.31,0,.62-.08,1.09-.08l1.24-.23L269.43,73c-.93.24-1.86.31-2.63.47s-1.55.08-2.25.08a8.27,8.27,0,0,1-5.66-1.63,5.62,5.62,0,0,1-1.63-4.88,23.79,23.79,0,0,1,.62-3.65l.08-.23L260,55h-3.34l1.48-5.81h3.33l2.17-7.45Zm12.16,16.82h7.22a1.86,1.86,0,0,0,.08-.62.74.74,0,0,0,.08-.39,3.39,3.39,0,0,0-.7-2.55,2.63,2.63,0,0,0-2.17-1,4.16,4.16,0,0,0-2.8,1.24,7.16,7.16,0,0,0-1.7,3.33Zm14.34,7.75a14.22,14.22,0,0,1-5.43,5.89,13.68,13.68,0,0,1-7.52,2.1,11.58,11.58,0,0,1-8.6-3.1,10.33,10.33,0,0,1-2.72-8.37,15.77,15.77,0,0,1,1.09-4.65,15.93,15.93,0,0,1,2.33-4.19,13.77,13.77,0,0,1,5.11-4,15.82,15.82,0,0,1,6.67-1.4,10,10,0,0,1,8,3.26,11.21,11.21,0,0,1,2.48,8.76c0,.47-.08.85-.08,1.32l-.23,1.16H283.37c0,.16-.08.23-.08.39a1.85,1.85,0,0,1-.07.62,3.94,3.94,0,0,0,.77,3,2.65,2.65,0,0,0,2.4,1.08A4.16,4.16,0,0,0,289,66.6a5.43,5.43,0,0,0,1.71-2.33Z"></path><path id="Path_5" data-name="Path 5" class="cls-2" d="M99.72,95.39l1-2.62a6.88,6.88,0,0,0,1.35.76,3,3,0,0,0,1.1.26.71.71,0,0,0,.5-.17c.17-.09.26-.17.26-.34s-.34-.51-1-.59c-.25-.09-.42-.09-.51-.17a2.83,2.83,0,0,1-1.69-.93,2.45,2.45,0,0,1-.5-1.61,3.19,3.19,0,0,1,1.1-2.53,4.26,4.26,0,0,1,2.87-.93,10.71,10.71,0,0,1,1.6.16,13.38,13.38,0,0,1,1.61.68l-1,2.54a3,3,0,0,0-1-.59,2.08,2.08,0,0,0-1-.17c-.17,0-.43,0-.51.08s-.17.17-.17.34.42.51,1.35.68a.88.88,0,0,0,.42.08,3.66,3.66,0,0,1,1.53.93,2.74,2.74,0,0,1,.59,1.7,3,3,0,0,1-1.18,2.45,4.37,4.37,0,0,1-3,1,6.84,6.84,0,0,1-1.86-.25A7.38,7.38,0,0,1,99.72,95.39Zm31.35-2.11a1.36,1.36,0,0,0,1.1-.51,1.6,1.6,0,0,0,.51-1.27,1.79,1.79,0,0,0-.51-1.35,1.36,1.36,0,0,0-1.1-.51,1.41,1.41,0,0,0-1.18.51,1.84,1.84,0,0,0-.42,1.35,1.56,1.56,0,0,0,.42,1.27A1.41,1.41,0,0,0,131.07,93.28Zm5.07-1.78a6.83,6.83,0,0,1-.34,2,5.16,5.16,0,0,1-1.09,1.6,7.17,7.17,0,0,1-1.7,1,5.12,5.12,0,0,1-1.94.34,5.23,5.23,0,0,1-2-.34,6.92,6.92,0,0,1-1.69-1,4,4,0,0,1-1-1.6,4.71,4.71,0,0,1,0-3.89,4.14,4.14,0,0,1,1-1.61A4.4,4.4,0,0,1,129,86.86a5,5,0,0,1,2-.34,4.76,4.76,0,0,1,1.94.34,4.51,4.51,0,0,1,1.7,1.09,5.55,5.55,0,0,1,1.1,1.61,7.11,7.11,0,0,1,.33,1.94Zm19,4.65V86.68h6.34V89.3h-2.88v1.1h2.62v2.45h-2.62v3.29Zm26.36,0V89.81h-1.94V86.69h7.27v3.12H184.9v6.34Zm29.58-4.73a5.19,5.19,0,0,1-.25,1.35V93l-.76,3.13h-3l-2.79-9.47h3.47l.76,4.22c0,.34.08.68.08,1a3,3,0,0,1,.09.84h.08a14.12,14.12,0,0,1,.17-1.44.26.26,0,0,0,.09-.16l.84-4.48h2.45l.93,4.48v.16a5,5,0,0,1,.17,1.44h.09c0-.25.08-.51.08-.84s.09-.68.17-1l.76-4.22H218l-2.79,9.47h-3L211.52,93a.33.33,0,0,1-.08-.25c-.17-.59-.17-1-.26-1.35Zm28.14,1.35h1.35l-.25-1.1c-.17-.51-.25-.93-.34-1.27s-.08-.51-.08-.76h0c-.09.26-.09.51-.17.76a4.27,4.27,0,0,1-.25,1.27Zm-4.56,3.38,3.38-9.47h3.8l3.38,9.47h-3.72l-.34-1.1h-2.53l-.34,1.1Zm32-7V91h.51a1.76,1.76,0,0,0,.76-.17,1,1,0,0,0,.26-.68.89.89,0,0,0-.76-1,1.13,1.13,0,0,0-.26,0Zm-3.37,7V86.68h4.31a4.61,4.61,0,0,1,2.87.84,3,3,0,0,1,1,2.37,2.62,2.62,0,0,1-.51,1.69,2.17,2.17,0,0,1-1.35.76l2.54,3.81h-3.89l-1.6-3.05v3.05Zm27.12,0V86.68h6.34V89.3h-3v.93h2.71v2.45h-2.71v1h3.05v2.45Z"></path><g id="novo_simbolo" data-name="novo simbolo"><path id="Caminho_3165" data-name="Caminho 3165" class="cls-3" d="M85.42,69.37h2.42l.91-2.94.89-2.88,1.6-5.17,3.4-11-25.08,22Z"></path><path id="Caminho_3166" data-name="Caminho 3166" class="cls-3" d="M47.59,82.79h36.1l3.4-11H62.59l33.59-29.4,5.73-18.52L34.17,82.79Z"></path><path id="Caminho_3167" data-name="Caminho 3167" class="cls-3" d="M0,96.21H79.48l3.42-11H28.33L104.08,18.5,109.8,0Z"></path></g></g></g></g></svg>